# xmcd CD database file
#
# Track frame offsets:
#	183
#	14720
#	26368
#	43173
#	55903
#	66175
#	77843
#	101678
#	118208
#	135520
#	152265
#	167428
#	182475
#
# Disc length: 2587 seconds
#
# Revision: 1
# Processed by: cddbd v1.5PL3 Copyright (c) Steve Scherf et al.
# Submitted via: CDex 1.50
#
DISCID=a30a190d
DTITLE=Josef Zoch - Blues posledniho vlaku
DYEAR=1992
DGENRE=Country
TTITLE0=Nashville I
TTITLE1=Rvac, hrac, desperat
TTITLE2=Lady Noc
TTITLE3=Kdo zavaha, smulu ma
TTITLE4=Bouda v planich
TTITLE5=Celej rok
TTITLE6=Blues posledniho vlaku
TTITLE7=Rano
TTITLE8=Jsou to chvile
TTITLE9=I kdyz nejsem zadnej tramp
TTITLE10=Jukebox
TTITLE11=Kamaradka lod
TTITLE12=Nashville II
EXTD=YEAR: 1992
EXTT0=
EXTT1=
EXTT2=
EXTT3=
EXTT4=
EXTT5=
EXTT6=
EXTT7=
EXTT8=
EXTT9=
EXTT10=
EXTT11=
EXTT12=
PLAYORDER=
